# xmcd
#
# Track frame offsets:
# 150
# 18232
# 32629
# 51708
# 68373
# 84361
# 97551
# 113082
# 131712
# 150147
# 172094
# 193195
# 210491
# 228308
# 243492
# 262475
# 282175
#
# Disc length: 4000 seconds
#
#
# Revision: 0
# Processed by: cddbd v1.5.2PL0 Copyright (c) Steve Scherf et al.
# Submitted via: FreeRIP 2.944 
#
DISCID=e10f9e11
DTITLE=Kenny Chesney - When The Sun Goes Down
DYEAR=1900
DGENRE=Country
TTITLE0=Big Star
TTITLE1=How Forever Forever
TTITLE2=I'd Love to Lay you Down
TTITLE3=Me and You
TTITLE4=No Shoes,No Shirt,No Problem
TTITLE5=She Don't Know
TTITLE6=She's Got It All
TTITLE7=There Goes MyLife
TTITLE8=When The Sun Goes Down
TTITLE9=(with Uncle) When The Sun Goes Down
TTITLE10=When I Think About Everything
TTITLE11=You Had Me From Hello
TTITLE12=Kenny Chesney Track1
TTITLE13=The Good Stuff
TTITLE14=Dreams
TTITLE15=Back Where I Come From
TTITLE16=I Lost It
EXTD=
EXTT0=
EXTT1=
EXTT2=
EXTT3=
EXTT4=
EXTT5=
EXTT6=
EXTT7=
EXTT8=
EXTT9=
EXTT10=
EXTT11=
EXTT12=
EXTT13=
EXTT14=
EXTT15=
EXTT16=
PLAYORDER=
